<?xml version="1.0" encoding="UTF-8"?>
<svg width="44px" height="44px" viewBox="0 0 44 44" version="1.1" xmlns="http://www.w3.org/2000/svg" xmlns:xlink="http://www.w3.org/1999/xlink">
    <!-- Generator: Sketch 40.3 (33839) - http://www.bohemiancoding.com/sketch -->
    <title>edit_photo</title>
    <desc>Created with Sketch.</desc>
    <defs>
        <circle id="path-1" cx="21" cy="21" r="21"></circle>
        <filter x="-50%" y="-50%" width="200%" height="200%" filterUnits="objectBoundingBox" id="filter-2">
            <feOffset dx="0" dy="0" in="SourceAlpha" result="shadowOffsetOuter1"></feOffset>
            <feGaussianBlur stdDeviation="0.5" in="shadowOffsetOuter1" result="shadowBlurOuter1"></feGaussianBlur>
            <feColorMatrix values="0 0 0 0 0   0 0 0 0 0   0 0 0 0 0  0 0 0 0.276268116 0" type="matrix" in="shadowBlurOuter1"></feColorMatrix>
        </filter>
    </defs>
    <g id="website" stroke="none" stroke-width="1" fill="none" fill-rule="evenodd">
        <g id="14_USER_Profile_edit" transform="translate(-739.000000, -275.000000)">
            <g id="Group-4" transform="translate(493.000000, 180.000000)">
                <g id="profile_page" transform="translate(129.000000, 96.000000)">
                    <g id="edit_photo" transform="translate(118.000000, 0.000000)">
                        <g id="Oval-8">
                            <use fill="black" fill-opacity="1" filter="url(#filter-2)" xlink:href="#path-1"></use>
                            <use fill="#00D3B8" fill-rule="evenodd" xlink:href="#path-1"></use>
                        </g>
                        <g id="pencil-edit-button" transform="translate(12.000000, 10.000000)" fill="#FFFFFF">
                            <path d="M15.676724,7.05610247 L5.89513611,16.8748121 L2.03303592,12.9958918 L11.8124329,3.17718216 L15.676724,7.05610247 Z M18.6089735,2.24167552 L16.8856484,0.511810247 C16.2196427,-0.15672296 15.1381871,-0.15672296 14.4699187,0.511810247 L12.8191456,2.1688482 L16.6834367,6.04780455 L18.6089735,4.11496015 C19.1255293,3.59640797 19.1255293,2.76019165 18.6089735,2.24167552 L18.6089735,2.24167552 Z M0.0107750473,18.4480266 C-0.0595500945,18.7657268 0.226204159,19.0504023 0.54273913,18.9731404 L4.8488431,17.925112 L0.986742911,14.0461917 L0.0107750473,18.4480266 L0.0107750473,18.4480266 Z" id="Shape"></path>
                        </g>
                    </g>
                </g>
            </g>
        </g>
    </g>
</svg>