<?xml version="1.0" encoding="UTF-8"?>
<svg width="30px" height="30px" viewBox="0 0 30 30" version="1.1" xmlns="http://www.w3.org/2000/svg" xmlns:xlink="http://www.w3.org/1999/xlink">
    <!-- Generator: Sketch 40.3 (33839) - http://www.bohemiancoding.com/sketch -->
    <title>facebook_active</title>
    <desc>Created with Sketch.</desc>
    <defs></defs>
    <g id="website" stroke="none" stroke-width="1" fill="none" fill-rule="evenodd">
        <g id="01_landing-page" transform="translate(-1032.000000, -2096.000000)" fill="#00B69F">
            <g id="footer" transform="translate(-1.000000, 2000.000000)">
                <g id="facebook_active" transform="translate(1033.000000, 96.000000)">
                    <g id="Group">
                        <path d="M14.8932743,29.7865487 C23.1186026,29.7865487 29.7865487,23.1186026 29.7865487,14.8932743 C29.7865487,6.66794605 23.1186026,0 14.8932743,0 C6.66794605,0 0,6.66794605 0,14.8932743 C0,23.1186026 6.66794605,29.7865487 14.8932743,29.7865487 Z M18.6374336,15.4762832 L15.9799115,15.4762832 L15.9799115,25.2122124 L11.9535398,25.2122124 L11.9535398,15.4762832 L10.0385841,15.4762832 L10.0385841,12.0546903 L11.9535398,12.0546903 L11.9535398,9.84053097 C11.9535398,8.25716814 12.7056637,5.77778761 16.0157522,5.77778761 L18.9982301,5.79026549 L18.9982301,9.11150442 L16.8342478,9.11150442 C16.479292,9.11150442 15.980177,9.28884956 15.980177,10.0441593 L15.980177,12.0578761 L18.9892035,12.0578761 L18.6374336,15.4762832 Z" id="Combined-Shape"></path>
                    </g>
                </g>
            </g>
        </g>
    </g>
</svg>