<?xml version="1.0" encoding="UTF-8"?>
<svg width="30px" height="30px" viewBox="0 0 30 30" version="1.1" xmlns="http://www.w3.org/2000/svg" xmlns:xlink="http://www.w3.org/1999/xlink">
    <!-- Generator: Sketch 40.3 (33839) - http://www.bohemiancoding.com/sketch -->
    <title>google-plus_active</title>
    <desc>Created with Sketch.</desc>
    <defs></defs>
    <g id="website" stroke="none" stroke-width="1" fill="none" fill-rule="evenodd">
        <g id="01_landing-page" transform="translate(-980.000000, -2096.000000)">
            <g id="footer" transform="translate(-1.000000, 2000.000000)">
                <g id="google-plus_active" transform="translate(981.000000, 96.000000)">
                    <g id="Group">
                        <path d="M15,29.2682927 C23.2842712,29.2682927 30,22.7163622 30,14.6341463 C30,6.55193049 23.2842712,0 15,0 C6.71572875,0 0,6.55193049 0,14.6341463 C0,22.7163622 6.71572875,29.2682927 15,29.2682927 Z M5.22237869,15.2891847 C5.10125138,12.1778177 7.89466648,9.30253589 11.0870263,9.26523184 C12.7140896,9.12984159 14.2970338,9.74627155 15.5283611,10.751655 C15.0232629,11.2934768 14.5093408,11.8290379 13.9603907,12.3304252 C12.8763949,11.6879085 11.5712681,11.1982602 10.3043781,11.6331263 C8.2609897,12.2007741 7.02351242,14.5545817 7.77968912,16.5048274 C8.40591465,18.541681 10.94531,19.6594983 12.9354879,18.8038528 C13.9660059,18.4438557 14.6454419,17.5162107 14.9435809,16.5194359 C13.7625227,16.4964796 12.5811972,16.5108273 11.400139,16.4790015 C11.3971978,15.7934416 11.3942565,15.1104904 11.3971978,14.4249306 C13.3667867,14.422061 15.3393169,14.416322 17.3118471,14.4335392 C17.4329744,16.1132652 17.1789547,17.9109033 16.0596634,19.2590667 C14.5269885,21.1834864 11.6953367,21.7482646 9.39177867,20.993314 C6.94703911,20.2099288 5.16916824,17.807078 5.22237869,15.2891847 Z M21.1510214,12.6961615 L22.9077685,12.6961615 C22.9109772,13.2695483 22.9165924,13.8458047 22.9198011,14.4189306 C23.5072552,14.4246697 24.0979179,14.4275393 24.6856394,14.4304088 L24.6856394,16.1474388 C24.0981853,16.1503084 23.5075225,16.1531779 22.9198011,16.1560475 C22.9139185,16.7323038 22.9109772,17.3054298 22.9077685,17.8816861 C22.3203144,17.8788166 21.7323256,17.8816861 21.1478128,17.8816861 C21.1421976,17.3054298 21.1421976,16.7323038 21.1360476,16.158917 C20.5485935,16.1529171 19.9579308,16.1503084 19.3702093,16.147178 L19.3702093,14.4301479 C19.9579308,14.4272784 20.5456523,14.4244089 21.1360476,14.4186698 C21.1389889,13.8458047 21.1448715,13.2695483 21.1510214,12.6961615 Z" id="Combined-Shape" fill="#00B69F"></path>
                        <g transform="translate(7.544248, 9.598019)">
                            <g></g>
                        </g>
                    </g>
                </g>
            </g>
        </g>
    </g>
</svg>