<?xml version="1.0" encoding="UTF-8"?>
<svg width="140px" height="43px" viewBox="0 0 140 43" version="1.1" xmlns="http://www.w3.org/2000/svg" xmlns:xlink="http://www.w3.org/1999/xlink">
    <!-- Generator: Sketch 40.3 (33839) - http://www.bohemiancoding.com/sketch -->
    <title>logo</title>
    <desc>Created with Sketch.</desc>
    <defs></defs>
    <g id="website" stroke="none" stroke-width="1" fill="none" fill-rule="evenodd">
        <g id="02_register-page" transform="translate(-650.000000, -52.000000)">
            <g id="logo" transform="translate(650.000000, 52.000000)">
                <path d="M23.47535,20.0863592 C24.2422398,20.0863592 24.8813147,20.4661433 24.8813147,21.2679097 C24.8813147,22.4916585 22.9640901,27.8930324 15.9342666,27.8930324 C8.64881315,27.8930324 4.98478393,22.1118744 4.98478393,16.4995093 C4.98478393,11.0981354 8.60620816,4.64180569 16.0620816,4.64180569 C18.746196,4.64180569 21.4303104,5.61236506 23.0919051,7.63788027 C23.7309799,8.43964671 24.4978698,8.77723258 25.2647596,8.77723258 C26.6281193,8.77723258 27.863664,7.59568204 27.863664,6.1609421 C27.863664,3.88223749 23.262325,0 16.4881315,0 C6.09251369,0 0,8.14425908 0,16.7105005 C0,26.4582924 7.37066342,32.7880275 15.9342666,32.7880275 C26.0742544,32.7880275 30.4199635,24.8969578 30.4199635,20.0863592 C30.4199635,17.4700687 29.0566038,15.6133464 25.3925746,15.6133464 C23.9866099,15.6133464 21.6007304,15.52895 19.5130858,15.52895 C18.1071211,15.52895 16.2751065,15.52895 16.2751065,17.7654563 C16.2751065,18.9892051 17.0419963,20.2129539 18.4053561,20.2129539 L18.490566,20.2129539 C20.8338405,20.1285574 22.9640901,20.0863592 23.39014,20.0863592 L23.47535,20.0863592 Z M52.7875837,29.2011776 C53.2562386,28.7369971 53.4266586,28.2306183 53.4266586,27.7242395 C53.4266586,26.5426889 52.3189288,25.5299313 51.168594,25.5299313 C50.6573341,25.5299313 50.1460743,25.7409225 49.7200243,26.205103 C48.4844796,27.5132483 46.86549,28.7791953 44.1813755,28.7791953 C41.1564212,28.7791953 38.4297018,26.6692836 38.3870968,23.1668302 C38.3870968,22.7026497 38.4723068,22.3650638 38.7279367,22.3650638 C46.9933049,22.3650638 47.8880097,22.3650638 49.2087645,22.3228656 C51.9354839,22.2384691 53.2562386,20.6349362 53.2562386,18.6516192 C53.2562386,15.4445535 49.9330493,11.1825319 44.0535606,11.1825319 C38.5575167,11.1825319 33.9561777,15.6133464 33.9561777,22.0696762 C33.9561777,28.357213 38.3018868,32.703631 44.1387705,32.703631 C48.4418746,32.703631 50.7425441,31.3110893 52.7875837,29.2011776 Z M47.9732197,18.8626104 C46.822885,18.9048086 44.9056604,18.9048086 43.1588558,18.9048086 C39.1965916,18.9048086 38.7705417,18.9048086 38.7705417,18.5250245 C38.7705417,17.8076546 40.6451613,14.8537782 44.0961656,14.8537782 C47.9306147,14.8537782 48.8253195,17.343474 48.8253195,17.9342493 C48.8253195,18.4406281 48.4844796,18.8204122 47.9732197,18.8626104 Z M67.6993305,32.6192345 C73.7918442,32.6192345 78.3931832,28.3150147 78.3931832,21.9430815 C78.3931832,15.7821394 73.7918442,11.2669284 67.6993305,11.2669284 C61.6068168,11.2669284 56.9628728,15.7821394 56.9628728,21.9430815 C56.9628728,28.3150147 61.6068168,32.6192345 67.6993305,32.6192345 Z M61.2659769,21.9430815 C61.2659769,17.7654563 64.2057212,15.1491658 67.6993305,15.1491658 C71.1929397,15.1491658 74.0900791,17.7654563 74.0900791,21.9430815 C74.0900791,26.0785083 71.2355447,28.6526006 67.6993305,28.6526006 C64.1631163,28.6526006 61.2659769,26.0785083 61.2659769,21.9430815 Z M88.0645161,13.4612365 C87.8940962,12.1952895 86.9141814,11.5201178 85.9342666,11.5201178 C84.8265368,11.5201178 83.7188071,12.3218842 83.7188071,13.8832188 C83.7188071,17.892051 83.804017,25.8253189 83.804017,32.1972522 C83.804017,35.9106968 83.804017,39.0755643 83.6762021,40.5947007 L83.6762021,40.8056919 C83.6762021,42.2404318 84.7839318,43 85.9342666,43 C87.2550213,43 88.1497261,42.1138371 88.1071211,40.8056919 C88.0645161,39.0755643 87.9793061,35.0667321 87.9793061,30.4249264 C87.9793061,30.2561335 88.0219111,30.171737 88.1071211,30.171737 C88.1497261,30.171737 88.2349361,30.2561335 88.3201461,30.2983317 C89.8965307,31.6486752 91.8989653,32.5348381 94.2422398,32.5348381 C100.121729,32.5348381 104.552648,28.1040236 104.552648,21.9430815 C104.552648,15.5711482 100.121729,11.3513248 94.2422398,11.3513248 C91.8989653,11.3513248 89.8965307,12.1952895 88.3201461,13.545633 C88.2775411,13.5878312 88.2349361,13.5878312 88.1923311,13.5878312 C88.1497261,13.5878312 88.1071211,13.545633 88.0645161,13.4612365 Z M94.1570298,28.6947988 C90.7486306,28.6947988 88.0219111,26.1207066 88.0219111,21.9430815 C88.0219111,17.8076546 90.7486306,15.2757605 94.1570298,15.2757605 C97.5654291,15.2757605 100.292149,17.8076546 100.292149,21.9430815 C100.292149,26.1207066 97.5654291,28.6947988 94.1570298,28.6947988 Z M115.369297,30.5684199 C115.326692,28.2475171 115.369297,29.4659435 115.369297,29.4237453 C115.369297,28.0734018 114.218963,27.3982301 113.111233,27.3982301 C111.833083,27.3982301 110.767958,28.1577983 110.810563,29.55034 C110.853168,30.6896923 110.810563,27.150363 110.810563,30.6528164 C110.810563,32.0875563 111.918293,32.8049263 113.068628,32.8049263 C114.218963,32.8049263 115.369297,32.0875563 115.369297,30.6528164 L115.369297,30.5684199 Z M135.526476,30.3405299 C135.526476,31.6908734 136.634206,32.4504416 137.741935,32.4504416 C138.849665,32.4504416 139.91479,31.7330716 139.957395,30.2139352 C140,29.3277723 140,28.1462218 140,26.8380765 C140,23.7154073 139.91479,19.9597645 139.872185,18.4406281 C139.701765,13.7144259 136.250761,11.3935231 132.671942,11.3935231 C130.456482,11.3935231 128.198418,12.2374877 126.622033,13.9254171 C126.536823,14.0098135 126.451613,14.09421 126.409008,14.09421 C126.366403,14.09421 126.366403,14.0520118 126.366403,14.0098135 L126.366403,13.8832188 C126.366403,13.7566241 126.409008,13.6300294 126.409008,13.4612365 C126.409008,12.110893 125.301278,11.4779195 124.236153,11.4779195 C123.171029,11.4779195 121.935484,12.110893 121.935484,13.37684 L121.935484,13.4612365 C122.020694,16.2885182 122.063299,18.4828263 122.063299,21.0147203 C122.063299,23.5044161 122.020694,26.2894995 121.892879,30.2983317 L121.892879,30.3827282 C121.892879,31.7330716 123.000609,32.4504416 124.150943,32.4504416 C125.855143,32.4504416 126.366403,31.1844946 126.323798,30.2983317 C126.238588,27.3022571 126.195983,25.0657507 126.195983,23.3356232 C126.195983,22.1540726 126.195983,21.1835132 126.238588,20.423945 C126.366403,17.5966634 129.476567,15.3179588 132.075472,15.3179588 C133.864881,15.3179588 135.356056,16.3729146 135.526476,18.9892051 C135.569081,19.6643768 135.611686,21.0991168 135.611686,22.7870461 C135.611686,25.3611384 135.569081,28.5682041 135.526476,30.2983317 L135.526476,30.3405299 Z" id="Combined-Shape" fill="#FFFFFF"></path>
                <path d="M112.465637,25.5828327 C112.824559,25.9732422 113.409233,25.9752021 113.765408,25.5828327 C113.765408,25.5828327 118.878507,20.2763156 118.878507,17.1238938 C118.878507,13.971472 116.298331,11.4159292 113.115523,11.4159292 C109.932714,11.4159292 107.352538,13.971472 107.352538,17.1238938 C107.352538,20.2763156 112.465637,25.5828327 112.465637,25.5828327 Z M113.118729,19.6029412 C113.593347,19.6029412 114.037763,19.475034 114.418672,19.2521661 C115.171165,18.8118855 115.675807,18.0010026 115.675807,17.0735294 C115.675807,15.6765739 114.530964,14.5441176 113.118729,14.5441176 C111.706494,14.5441176 110.561652,15.6765739 110.561652,17.0735294 C110.561652,18.470485 111.706494,19.6029412 113.118729,19.6029412 Z" id="Combined-Shape" fill="#00D3B8"></path>
            </g>
        </g>
    </g>
</svg>